<?xml version="1.0" standalone="no"?><!DOCTYPE svg PUBLIC "-//W3C//DTD SVG 1.1//EN" "http://www.w3.org/Graphics/SVG/1.1/DTD/svg11.dtd"><svg t="1611716377189" class="icon" viewBox="0 0 1024 1024" version="1.1" xmlns="http://www.w3.org/2000/svg" p-id="1315" xmlns:xlink="http://www.w3.org/1999/xlink" width="200" height="200"><defs><style type="text/css"></style></defs><path d="M989.696 343.008c1.376-7.52 2.304-15.136 2.304-23.008a128 128 0 0 0-128-128 127.52 127.52 0 0 0-114.464 71.776A95.616 95.616 0 0 0 672 223.968 96 96 0 0 0 576 320c0 7.776 1.152 15.264 2.944 22.496A95.296 95.296 0 0 0 544 416a96 96 0 0 0 96 96h288a96 96 0 0 0 96-96 95.36 95.36 0 0 0-34.304-72.992z" fill="#DBDEE0" p-id="1316"></path><path d="M512 0.032L1024 1024H0L512 0.032z" fill="#3DB39E" p-id="1317"></path><path d="M320 352.032L416 448l96-95.968L608 448l96-95.968L544 0h-64l-160 352.032z" fill="#E4E7E7" p-id="1318"></path><path d="M576 928.032h64V1024h-64v-95.968z" fill="#4A4A4A" p-id="1319"></path><path d="M766.912 928.032L665.376 800H736l-128-160-128 160h70.4L448 928.032z" fill="#277264" p-id="1320"></path><path d="M224 576L0 1024h32l448-448z" fill="#349886" p-id="1321"></path><path d="M445.696 471.008c1.344-7.52 2.304-15.136 2.304-23.008a128 128 0 0 0-128-128 127.52 127.52 0 0 0-114.464 71.776A95.616 95.616 0 0 0 128 351.968 96 96 0 0 0 32 448c0 7.776 1.152 15.264 2.912 22.496A95.36 95.36 0 0 0 0 544a96 96 0 0 0 96 96h288a96 96 0 0 0 96-96 95.36 95.36 0 0 0-34.304-72.992z" fill="#ECEEEE" p-id="1322"></path></svg>